<svg width="34" height="34" viewBox="0 0 34 34" fill="none" xmlns="http://www.w3.org/2000/svg">
<path fill-rule="evenodd" clip-rule="evenodd" d="M10.3334 0.333344H30.3334C32.1667 0.333344 33.6667 1.83334 33.6667 3.66668V23.6667C33.6667 25.5 32.1667 27 30.3334 27H10.3334C8.50003 27 7.00003 25.5 7.00003 23.6667V3.66668C7.00003 1.83334 8.50003 0.333344 10.3334 0.333344ZM30.3334 23.6667V3.66668H10.3334V23.6667H30.3334ZM16.1667 16.45L18.9834 20.2167L23.1167 15.05L28.6667 22H12L16.1667 16.45ZM0.333374 30.3333V7.00001H3.66671V30.3333H27V33.6667H3.66671C1.83337 33.6667 0.333374 32.1667 0.333374 30.3333Z" fill="#070E26"/>
</svg>
