<svg width="40" height="40" viewBox="0 0 40 40" fill="none" xmlns="http://www.w3.org/2000/svg">
<g id="location_on_24px">
<path id="icon/communication/location_on_24px" fill-rule="evenodd" clip-rule="evenodd" d="M20 3.33334C13.55 3.33334 8.33331 8.55001 8.33331 15C8.33331 23.75 20 36.6667 20 36.6667C20 36.6667 31.6666 23.75 31.6666 15C31.6666 8.55001 26.45 3.33334 20 3.33334ZM11.6666 15C11.6666 10.4 15.4 6.66668 20 6.66668C24.6 6.66668 28.3333 10.4 28.3333 15C28.3333 19.8 23.5333 26.9833 20 31.4667C16.5333 27.0167 11.6666 19.75 11.6666 15ZM15.8333 15C15.8333 12.6988 17.6988 10.8333 20 10.8333C21.4886 10.8333 22.8641 11.6275 23.6084 12.9167C24.3527 14.2058 24.3527 15.7942 23.6084 17.0833C22.8641 18.3725 21.4886 19.1667 20 19.1667C17.6988 19.1667 15.8333 17.3012 15.8333 15Z" fill="#070E26"/>
</g>
</svg>
