<svg width="40" height="40" viewBox="0 0 40 40" fill="none" xmlns="http://www.w3.org/2000/svg">
<g id="settings_24px">
<path id="icon/action/settings_24px" fill-rule="evenodd" clip-rule="evenodd" d="M32.5036 20C32.5036 20.5667 32.4536 21.1 32.387 21.6333L35.9036 24.3833C36.2203 24.6333 36.3036 25.0833 36.1036 25.45L32.7703 31.2167C32.6203 31.4833 32.337 31.6333 32.0536 31.6333C31.9536 31.6333 31.8536 31.6167 31.7536 31.5833L27.6036 29.9167C26.737 30.5667 25.8036 31.1333 24.787 31.55L24.1536 35.9667C24.1036 36.3667 23.7536 36.6667 23.337 36.6667H16.6703C16.2536 36.6667 15.9036 36.3667 15.8536 35.9667L15.2203 31.55C14.2036 31.1333 13.2703 30.5833 12.4036 29.9167L8.25364 31.5833C8.17031 31.6167 8.07031 31.6333 7.97031 31.6333C7.67031 31.6333 7.38697 31.4833 7.23697 31.2167L3.90364 25.45C3.70364 25.0833 3.78697 24.6333 4.10364 24.3833L7.62031 21.6333C7.55364 21.1 7.50364 20.55 7.50364 20C7.50364 19.45 7.55364 18.9 7.62031 18.3667L4.10364 15.6167C3.78697 15.3667 3.68697 14.9167 3.90364 14.55L7.23697 8.78334C7.38697 8.51668 7.67031 8.36668 7.95364 8.36668C8.05364 8.36668 8.15364 8.38334 8.25364 8.41668L12.4036 10.0833C13.2703 9.43334 14.2036 8.86668 15.2203 8.45001L15.8536 4.03334C15.9036 3.63334 16.2536 3.33334 16.6703 3.33334H23.337C23.7536 3.33334 24.1036 3.63334 24.1536 4.03334L24.787 8.45001C25.8036 8.86668 26.737 9.41668 27.6036 10.0833L31.7536 8.41668C31.837 8.38334 31.937 8.36668 32.037 8.36668C32.337 8.36668 32.6203 8.51668 32.7703 8.78334L36.1036 14.55C36.3036 14.9167 36.2203 15.3667 35.9036 15.6167L32.387 18.3667C32.4536 18.9 32.5036 19.4333 32.5036 20ZM29.1703 20C29.1703 19.65 29.1536 19.3 29.087 18.7833L28.8536 16.9L30.337 15.7333L32.1203 14.3167L30.9536 12.3L28.837 13.15L27.0703 13.8667L25.5536 12.7C24.887 12.2 24.2203 11.8167 23.5036 11.5167L21.737 10.8L21.4703 8.91668L21.1536 6.66668H18.837L18.5036 8.91668L18.237 10.8L16.4703 11.5167C15.787 11.8 15.1036 12.2 14.387 12.7333L12.887 13.8667L11.1536 13.1667L9.03698 12.3167L7.87031 14.3333L9.67031 15.7333L11.1536 16.9L10.9203 18.7833C10.8703 19.2833 10.837 19.6667 10.837 20C10.837 20.3333 10.8703 20.7167 10.9203 21.2333L11.1536 23.1167L9.67031 24.2833L7.87031 25.6833L9.03698 27.7L11.1536 26.85L12.9203 26.1333L14.437 27.3C15.1036 27.8 15.7703 28.1833 16.487 28.4833L18.2536 29.2L18.5203 31.0833L18.837 33.3333H21.1703L21.5036 31.0833L21.7703 29.2L23.537 28.4833C24.2203 28.2 24.9036 27.8 25.6203 27.2667L27.1203 26.1333L28.8536 26.8333L30.9703 27.6833L32.137 25.6667L30.337 24.2667L28.8536 23.1L29.087 21.2167C29.137 20.7167 29.1703 20.35 29.1703 20ZM20.0037 13.3333C16.3203 13.3333 13.337 16.3167 13.337 20C13.337 23.6833 16.3203 26.6667 20.0037 26.6667C23.687 26.6667 26.6703 23.6833 26.6703 20C26.6703 16.3167 23.687 13.3333 20.0037 13.3333ZM16.6703 20C16.6703 21.8333 18.1703 23.3333 20.0037 23.3333C21.837 23.3333 23.337 21.8333 23.337 20C23.337 18.1667 21.837 16.6667 20.0037 16.6667C18.1703 16.6667 16.6703 18.1667 16.6703 20Z" fill="#070E26"/>
</g>
</svg>
